<svg xmlns="http://www.w3.org/2000/svg" width="56" height="56" viewBox="0 0 50 50">
  <g fill="#262626" fill-rule="evenodd">
    <path
      d="M5.488.363h21.75c1.78 0 2.43.184 3.082.535a3.66 3.66 0 0 1 1.512 1.512c.348.652.535 1.297.535 3.082v21.746c0 1.78-.187 2.43-.535 3.082a3.66 3.66 0 0 1-1.512 1.512c-.652.348-1.3.535-3.082.535H5.488c-1.78 0-2.43-.187-3.082-.535A3.66 3.66 0 0 1 .895 30.32c-.348-.652-.535-1.3-.535-3.082V5.488c0-1.78.188-2.43.535-3.082A3.71 3.71 0 0 1 2.406.895c.652-.348 1.3-.53 3.082-.53zm0 0">
    </path>
    <path
      d="M44.563 49.69H22.816c-1.78 0-2.43-.184-3.082-.535-.645-.34-1.172-.867-1.512-1.512-.348-.652-.535-1.297-.535-3.082V22.816c0-1.78.184-2.43.535-3.082.34-.645.867-1.172 1.512-1.512.652-.348 1.3-.535 3.082-.535h21.746c1.785 0 2.43.188 3.082.535.645.34 1.172.867 1.512 1.512.352.652.535 1.3.535 3.082v21.746c0 1.785-.184 2.43-.535 3.082-.34.645-.867 1.172-1.512 1.512-.652.352-1.297.535-3.082.535zm0 0">
    </path>
  </g>
  <path
    d="M17.906 10.965c-.484 0-.875.387-.875.86v3.8L9.84 8.523c-.344-.336-.895-.336-1.238 0-.164.16-.254.38-.254.605a.86.86 0 0 0 .254.6l7.195 7.098h-3.875c-.484 0-.875.387-.875.86s.4.86.875.86h5.984a.88.88 0 0 0 .332-.066.86.86 0 0 0 .473-.465.79.79 0 0 0 .066-.328v-5.87c.004-.473-.387-.86-.87-.86zm14.418 28.008c.48 0 .87-.383.87-.86v-3.797l7.195 7.098a.88.88 0 0 0 1.234 0 .85.85 0 0 0 .258-.605c0-.23-.094-.45-.258-.605l-7.2-7.102h3.875c.484 0 .875-.383.875-.86s-.4-.855-.875-.855h-5.984a.92.92 0 0 0-.336.066c-.2.086-.383.25-.473.46a.88.88 0 0 0-.066.328v5.87c0 .477.4.86.875.86zm-10.1-10.1c-.355.352-.93.352-1.285 0s-.355-.934 0-1.3a.91.91 0 0 1 1.285 0c.355.352.355.934 0 1.3zm3.374-3.357a.91.91 0 0 1-1.285 0 .91.91 0 0 1 0-1.285c.352-.352.93-.352 1.285 0a.91.91 0 0 1 0 1.285zm3.36-3.364a.91.91 0 0 1-1.285 0 .91.91 0 0 1 0-1.285.91.91 0 0 1 1.285 0 .91.91 0 0 1 0 1.285zm0 0"
    fill="#FFFFFF"></path>
</svg>