<svg xmlns="http://www.w3.org/2000/svg" width="56" height="56" viewBox="0 0 50 50">
  <path
    d="M32.324 15.656h-9.55c-2.477 0-3.375.258-4.28.742a5.06 5.06 0 0 0-2.098 2.102c-.484.902-.742 1.8-.742 4.277v9.55H5.18c-1.8 0-2.453-.187-3.113-.54a3.69 3.69 0 0 1-1.527-1.527C.188 29.598 0 28.945 0 27.145V5.18c0-1.8.188-2.453.54-3.113A3.69 3.69 0 0 1 2.066.539C2.727.188 3.38 0 5.18 0h21.965c1.8 0 2.453.188 3.113.54a3.69 3.69 0 0 1 1.527 1.527c.352.66.54 1.313.54 3.113zm0 0"
    fill-rule="evenodd" fill="#525252"></path>
  <path
    d="M14.477 7.52c0-.477-.395-.863-.883-.863s-.883.387-.883.863v3.844L7.566 6.316a.89.89 0 0 0-1.246 0c-.168.16-.258.38-.258.61s.1.453.258.613l5.145 5.05H7.55c-.488 0-.883.387-.883.867s.395.863.883.863h6.047a.85.85 0 0 0 .34-.066c.215-.086.387-.254.477-.47.05-.102.066-.215.066-.328l.004-5.934zm0 0"
    fill="#ffffff"></path>
  <g fill-rule="evenodd">
    <path
      d="M22.855 17.676H44.82c1.8 0 2.453.188 3.113.543.648.344 1.184.875 1.527 1.527.352.656.54 1.31.54 3.11V44.82c0 1.8-.187 2.453-.54 3.113a3.69 3.69 0 0 1-1.527 1.527c-.66.352-1.312.54-3.113.54H22.855c-1.8 0-2.453-.187-3.113-.54-.648-.344-1.18-.88-1.527-1.527-.352-.66-.54-1.312-.54-3.113V22.855c0-1.8.188-2.453.54-3.113.348-.648.88-1.18 1.527-1.527.66-.352 1.313-.54 3.113-.54zm0 0"
      fill="#262626"></path>
    <path
      d="M41.5 26c1.102 0 2 .898 2 2s-.898 2-2 2-2-.898-2-2 .898-2 2-2zM30.6 39h-6.344c-.1 0-.172-.047-.215-.125s-.043-.168.004-.242l6.574-11.02a.26.26 0 0 1 .426 0l3.832 6.422 2.57-2.625c.047-.05.11-.074.176-.074h.008c.07 0 .137.03.18.086l6.1 7.13c.07.043.11.12.11.203 0 .133-.113.242-.246.242H30.6v-.004zm0 0"
      fill="#ffffff"></path>
  </g>
</svg>