<svg width="56" height="56" viewBox="0 0 56 56" fill="none" xmlns="http://www.w3.org/2000/svg">
  <g clip-path="url(#clip0_20_2)">
    <path
      d="M49 0H7C3.13401 0 0 3.13401 0 7V49C0 52.866 3.13401 56 7 56H49C52.866 56 56 52.866 56 49V7C56 3.13401 52.866 0 49 0Z"
      fill="#262626" />
    <path
      d="M10 21.6667H21.6667V10H10V21.6667ZM11.9444 11.9444H19.7222V19.7222H11.9444V11.9444ZM13.8889 13.8889H17.7778V17.7778H13.8889V13.8889ZM33.3333 21.6667H45V10H33.3333V21.6667ZM35.2778 11.9444H43.0556V19.7222H35.2778V11.9444ZM37.2222 13.8889H41.1111V17.7778H37.2222V13.8889ZM10 45H21.6667V33.3333H10V45ZM11.9444 35.2778H19.7222V43.0556H11.9444V35.2778ZM13.8889 37.2222H17.7778V41.1111H13.8889V37.2222ZM43.0556 41.1111H45V45H41.1111V39.1667H43.0556V41.1111ZM43.0556 35.2778H45V37.2222H43.0556V35.2778ZM43.0556 33.3333V35.2778H41.1111V33.3333H43.0556ZM23.6111 37.2222H25.5556V45H23.6111V37.2222ZM15.8333 23.6111V27.5H11.9444V25.5556H10V23.6111H15.8333ZM23.6111 17.7778H25.5556V19.7222H23.6111V17.7778ZM29.4444 11.9444V15.8333H27.5V10H31.3889V11.9444H29.4444ZM23.6111 11.9444H25.5556V13.8889H23.6111V11.9444ZM43.0556 27.5H45V31.3889H41.1111V29.4444H43.0556V27.5ZM41.1111 23.6111V25.5556H37.2222V29.4444H33.3333V27.5H35.2778V23.6111H41.1111ZM27.5 31.3889H25.5556V29.4444H23.6111V27.5H27.5V31.3889ZM39.1667 35.2778H41.1111V37.2222H39.1667V35.2778ZM43.0556 25.5556V27.5H41.1111V25.5556H43.0556ZM25.5556 31.3889V33.3333H23.6111V31.3889H25.5556ZM37.2222 41.1111H39.1667V45H35.2778V41.1111H37.2222ZM31.3889 41.1111H33.3333V43.0556H31.3889V45H27.5V43.0556H29.4444V41.1111H31.3889ZM31.3889 39.1667V37.2222H35.2778V39.1667H31.3889ZM31.3889 29.4444H33.3333V35.2778H31.3889V37.2222H29.4444V39.1667H27.5V35.2778H25.5556V33.3333H31.3889V31.3889H29.4444V29.4444H31.3889ZM13.8889 29.4444V31.3889H11.9444V29.4444H13.8889ZM37.2222 37.2222H35.2778V35.2778H37.2222V37.2222ZM39.1667 33.3333H35.2778V31.3889H39.1667V33.3333ZM19.7222 23.6111H21.6667V25.5556H19.7222V27.5H21.6667V31.3889H19.7222V29.4444H17.7778V31.3889H15.8333V27.5H17.7778V23.6111H19.7222ZM25.5556 23.6111V19.7222H31.3889V25.5556H27.5V23.6111H29.4444V21.6667H27.5V23.6111H25.5556ZM25.5556 15.8333H27.5V17.7778H25.5556V15.8333ZM23.6111 23.6111H25.5556V25.5556H23.6111V23.6111ZM29.4444 17.7778V15.8333H31.3889V17.7778H29.4444Z"
      fill="white" />
  </g>
  <defs>
    <clipPath id="clip0_20_2">
      <rect width="56" height="56" fill="white" />
    </clipPath>
  </defs>
</svg>