<svg xmlns="http://www.w3.org/2000/svg" width="56" height="56" viewBox="0 0 50 50">
  <path
    d="M17.676 34.344h9.55c2.476 0 3.375-.258 4.28-.742a5.04 5.04 0 0 0 2.097-2.102c.495-.902.743-1.8.743-4.277v-9.547H44.82c1.8 0 2.453.187 3.114.54.656.355 1.175.87 1.527 1.527s.54 1.31.54 3.113V44.82c0 1.8-.187 2.453-.54 3.114-.35.656-.87 1.175-1.526 1.527S46.62 50 44.82 50H22.855c-1.8 0-2.453-.187-3.113-.54s-1.172-.87-1.527-1.526-.54-1.312-.54-3.113zm0 0"
    fill-rule="evenodd" fill="#525252"></path>
  <path
    d="M43.94 37.137c0-.477-.393-.864-.88-.864s-.884.387-.884.864v3.843l-5.146-5.046c-.346-.34-.9-.34-1.25 0-.163.16-.257.38-.257.61a.86.86 0 0 0 .258.613l5.145 5.05h-3.914c-.49 0-.882.387-.882.867s.393.867.882.867H43.063c.113-.002.227-.022.335-.07.215-.085.387-.253.477-.464a.75.75 0 0 0 .065-.332l.005-5.934zm0 0"
    fill="#ffff"></path>
  <g fill-rule="evenodd">
    <path
      d="M27.145 32.324H5.18c-1.8 0-2.453-.187-3.113-.543S.89 30.914.54 30.254 0 28.95 0 27.145V5.18c0-1.8.188-2.453.54-3.113A3.69 3.69 0 0 1 2.066.539C2.727.188 3.38 0 5.18 0h21.965c1.8 0 2.453.188 3.113.54s1.172.87 1.527 1.527.54 1.313.54 3.113v21.965c0 1.8-.187 2.453-.54 3.113s-.87 1.176-1.527 1.527-1.312.54-3.113.54zm0 0"
      fill="#262626"></path>
    <path
      d="M19.367 17.156c-1.086.898-2.54 1.348-4.36 1.348H13.39V23.5H10V9h5.313C19.102 9 21 10.54 21 13.62c0 1.453-.543 2.637-1.633 3.535zM14.82 11.5H13.5V16h1.32c1.785 0 2.68-.758 2.68-2.273 0-1.484-.89-2.227-2.68-2.227zm0 0"
      fill="#ffffff"></path>
  </g>
</svg>