<svg xmlns="http://www.w3.org/2000/svg" width="56" height="56" viewBox="0 0 50 50" fill-rule="evenodd">
  <path
    d="M8.012 0h33.976c2.786 0 3.796.3 4.815.835a5.68 5.68 0 0 1 2.363 2.363c.545 1.02.835 2.03.835 4.815v33.976c0 2.786-.3 3.796-.835 4.815a5.68 5.68 0 0 1-2.363 2.363c-1.02.545-2.03.835-4.815.835H8.012c-2.786 0-3.796-.3-4.815-.835a5.68 5.68 0 0 1-2.363-2.363C.3 45.784 0 44.774 0 41.988V8.012c0-2.786.3-3.796.835-4.815A5.68 5.68 0 0 1 3.197.835C4.216.3 5.226 0 8.012 0z"
    fill="#262626"></path>
  <g fill="#FFF">
    <path
      d="M23.366 13.26a1.25 1.25 0 1 1 .318 2.48c-5.352.686-9.434 5.212-9.434 10.638 0 4.407 2.692 8.285 6.726 9.926a1.25 1.25 0 0 1-.942 2.316c-4.963-2.02-8.284-6.804-8.284-12.242 0-6.697 5.03-12.273 11.616-13.118zm14.778 11.437a1.25 1.25 0 1 1-2.475.354 11.6 11.6 0 0 0-.905-3.163 1.25 1.25 0 1 1 2.278-1.03c.545 1.205.908 2.482 1.102 3.84zM26.71 39.493a1.25 1.25 0 0 1-.354-2.475c1.1-.157 2.125-.445 3.09-.872a1.25 1.25 0 0 1 1.013 2.286c-1.178.522-2.425.872-3.748 1.06zm8.792-4.998a1.25 1.25 0 1 1-2-1.5c.718-.957 1.262-1.91 1.627-2.866a1.25 1.25 0 1 1 2.335.893C37 32.206 36.35 33.36 35.5 34.495z"
      fill-rule="nonzero"></path>
    <path
      d="M24.282 21c-.427 0-.78-.354-.78-.78V9.28c0-.427.354-.78.78-.78.208 0 .403.085.55.232l5.47 5.47c.146.146.232.342.232.55s-.085.403-.232.55l-5.47 5.47c-.146.146-.342.232-.55.232z">
    </path>
  </g>
</svg>