<svg xmlns="http://www.w3.org/2000/svg" width="56" height="56" viewBox="0 0 50 50">
  <path
    d="M17.676 34.344h9.55c2.477 0 3.375-.258 4.28-.742a5.04 5.04 0 0 0 2.098-2.102c.484-.902.742-1.8.742-4.277v-9.547H44.82c1.8 0 2.453.188 3.113.54s1.176.87 1.527 1.527.54 1.31.54 3.113V44.82c0 1.8-.187 2.453-.54 3.113a3.69 3.69 0 0 1-1.527 1.527c-.66.352-1.312.54-3.113.54H22.855c-1.8 0-2.453-.187-3.113-.54s-1.172-.87-1.527-1.527-.54-1.312-.54-3.113zm0 0"
    fill-rule="evenodd" fill="#525252"></path>
  <path
    d="M43.94 37.137c0-.477-.395-.863-.883-.863s-.883.387-.883.863v3.844l-5.145-5.047c-.348-.34-.902-.34-1.25 0a.85.85 0 0 0-.258.609.86.86 0 0 0 .258.613l5.145 5.05h-3.914c-.488 0-.883.387-.883.867s.395.867.883.867h6.05c.113-.004.227-.023.336-.07a.87.87 0 0 0 .477-.465c.05-.105.066-.22.066-.332l.004-5.934zm0 0"
    fill="#ffff"></path>
  <path
    d="M27.145 32.324H5.18c-1.8 0-2.453-.187-3.113-.543S.89 30.914.54 30.254 0 28.95 0 27.145V5.18c0-1.8.188-2.453.54-3.113A3.69 3.69 0 0 1 2.066.539C2.727.188 3.38 0 5.18 0h21.965c1.8 0 2.453.188 3.113.54s1.172.87 1.527 1.527.54 1.313.54 3.113v21.965c0 1.8-.187 2.453-.54 3.113s-.87 1.176-1.527 1.527-1.312.54-3.113.54zm0 0"
    fill-rule="evenodd" fill="#262626"></path>
  <path
    d="M20.844 8.61h2.96l-2.94 14.64H17.77l-1.777-9.035-1.824 9.035h-3.203L8.04 8.61h3.164l1.508 9.363 1.938-9.363h3.004l.04.203 1.688 9.1zm0 0"
    fill="#fff"></path>
</svg>